# xmcd CD database file
#
# Track frame offsets:
#	150
#	19027
#	36300
#	59862
#	77300
#	101300
#	121262
#	134187
#	147507
#	166157
#	187295
#	208200
#	221925
#
# Disc length: 3205 seconds
#
# Revision: 3
# Processed by: cddbd v1.5.2PL0 Copyright (c) Steve Scherf et al.
# Submitted via: CDex 1.70beta2
#
DISCID=cd0c830d
DTITLE=Blues 'N' Trouble - With Friends Like These...
DYEAR=1989
DGENRE=Blues
TTITLE0=blues 'n' trouble - wooly bully
TTITLE1=blues 'n' trouble - gotta keep control of myself
TTITLE2=blues 'n' trouble - sad, sad song
TTITLE3=blues 'n' trouble - boogie woogie suzy lee
TTITLE4=blues 'n' trouble - it's a crime
TTITLE5=blues 'n' trouble - long gone man
TTITLE6=blues 'n' trouble - nervous wreck
TTITLE7=blues 'n' trouble - sure hate being alone
TTITLE8=blues 'n' trouble - i ain't living anymore
TTITLE9=blues 'n' trouble - feel like hell
TTITLE10=blues 'n' trouble - don't look at me like that
TTITLE11=blues 'n' trouble - she's about a mover
TTITLE12=blues 'n' trouble - slippin' 'n' slidin'
EXTD=YEAR: 1989
EXTT0=
EXTT1=
EXTT2=
EXTT3=
EXTT4=
EXTT5=
EXTT6=
EXTT7=
EXTT8=
EXTT9=
EXTT10=
EXTT11=
EXTT12=
PLAYORDER=
